<?xml version="1.0" standalone="no"?>
<!DOCTYPE svg PUBLIC "-//W3C//DTD SVG 20010904//EN"
 "http://www.w3.org/TR/2001/REC-SVG-20010904/DTD/svg10.dtd">
<svg version="1.0" xmlns="http://www.w3.org/2000/svg"
 width="400.000000pt" height="400.000000pt" viewBox="0 0 400.000000 400.000000"
 preserveAspectRatio="xMidYMid meet">

<g transform="translate(0.000000,400.000000) scale(0.100000,-0.100000)"
fill="#000000" stroke="none">
<path d="M0 2000 l0 -2000 2000 0 2000 0 0 2000 0 2000 -2000 0 -2000 0 0
-2000z m3149 1153 c24 -20 42 -105 39 -188 0 -28 -2 -37 -4 -20 -9 73 -26 134
-44 153 -19 20 -20 20 -1139 21 l-1119 0 -17 -25 c-9 -14 -20 -44 -25 -67 l-8
-42 -1 53 c-1 29 5 68 13 87 l15 35 413 3 c227 1 738 3 1134 5 675 2 723 1
743 -15z m48 -350 c-2 -16 -4 -3 -4 27 0 30 2 43 4 28 2 -16 2 -40 0 -55z"/>
</g>
</svg>
